<mxfile host="Electron" agent="Mozilla/5.0 (Windows NT 10.0; Win64; x64) AppleWebKit/537.36 (KHTML, like Gecko) draw.io/24.7.8 Chrome/128.0.6613.36 Electron/32.0.1 Safari/537.36" version="24.7.8">
  <diagram name="Page-1" id="5a8SUEydTBM5Mbdg6vdA">
    <mxGraphModel dx="3390" dy="2715" grid="0" gridSize="10" guides="1" tooltips="1" connect="1" arrows="1" fold="1" page="0" pageScale="1" pageWidth="827" pageHeight="1169" math="0" shadow="0">
      <root>
        <mxCell id="0" />
        <mxCell id="1" parent="0" />
        <mxCell id="0QgKimpwkoEhEV1Tv8lo-11" value="&lt;b&gt;&lt;font style=&quot;font-size: 32px;&quot;&gt;level 1 DFD&lt;/font&gt;&lt;/b&gt;" style="text;html=1;align=center;verticalAlign=middle;resizable=0;points=[];autosize=1;strokeColor=none;fillColor=none;fontSize=16;labelBackgroundColor=none;" parent="1" vertex="1">
          <mxGeometry x="170.5" y="-850" width="191" height="50" as="geometry" />
        </mxCell>
        <mxCell id="IVCb8C8DBGEB2nKKx3dU-30" style="edgeStyle=none;rounded=0;orthogonalLoop=1;jettySize=auto;html=1;exitX=1;exitY=1;exitDx=0;exitDy=0;entryX=0;entryY=0.5;entryDx=0;entryDy=0;" parent="1" source="0QgKimpwkoEhEV1Tv8lo-12" target="0QgKimpwkoEhEV1Tv8lo-20" edge="1">
          <mxGeometry relative="1" as="geometry" />
        </mxCell>
        <mxCell id="IVCb8C8DBGEB2nKKx3dU-31" style="edgeStyle=none;rounded=0;orthogonalLoop=1;jettySize=auto;html=1;entryX=0;entryY=0.5;entryDx=0;entryDy=0;" parent="1" source="0QgKimpwkoEhEV1Tv8lo-12" target="0QgKimpwkoEhEV1Tv8lo-15" edge="1">
          <mxGeometry relative="1" as="geometry" />
        </mxCell>
        <mxCell id="IVCb8C8DBGEB2nKKx3dU-35" style="edgeStyle=none;rounded=0;orthogonalLoop=1;jettySize=auto;html=1;entryX=0;entryY=0.5;entryDx=0;entryDy=0;exitX=1;exitY=0.183;exitDx=0;exitDy=0;exitPerimeter=0;" parent="1" source="0QgKimpwkoEhEV1Tv8lo-12" target="0QgKimpwkoEhEV1Tv8lo-44" edge="1">
          <mxGeometry relative="1" as="geometry">
            <Array as="points" />
          </mxGeometry>
        </mxCell>
        <mxCell id="IVCb8C8DBGEB2nKKx3dU-80" style="edgeStyle=none;rounded=0;orthogonalLoop=1;jettySize=auto;html=1;exitX=0.25;exitY=0;exitDx=0;exitDy=0;entryX=0;entryY=0.5;entryDx=0;entryDy=0;" parent="1" source="0QgKimpwkoEhEV1Tv8lo-12" target="IVCb8C8DBGEB2nKKx3dU-78" edge="1">
          <mxGeometry relative="1" as="geometry">
            <mxPoint x="-501.716" y="-574.5" as="sourcePoint" />
          </mxGeometry>
        </mxCell>
        <mxCell id="0QgKimpwkoEhEV1Tv8lo-12" value="&lt;span style=&quot;font-size: 16px;&quot;&gt;&lt;b&gt;buyer&lt;/b&gt;&lt;/span&gt;" style="rounded=0;whiteSpace=wrap;html=1;strokeWidth=2;labelBackgroundColor=none;" parent="1" vertex="1">
          <mxGeometry x="-602" y="-176" width="122" height="60" as="geometry" />
        </mxCell>
        <mxCell id="ee9ZjSAX5tZKKtO9ktXa-1" style="edgeStyle=orthogonalEdgeStyle;rounded=0;orthogonalLoop=1;jettySize=auto;html=1;exitX=0.5;exitY=0;exitDx=0;exitDy=0;entryX=1;entryY=0.5;entryDx=0;entryDy=0;" parent="1" source="0QgKimpwkoEhEV1Tv8lo-14" target="0QgKimpwkoEhEV1Tv8lo-20" edge="1">
          <mxGeometry relative="1" as="geometry" />
        </mxCell>
        <mxCell id="0QgKimpwkoEhEV1Tv8lo-14" value="&lt;b&gt;&lt;span style=&quot;white-space: pre;&quot;&gt;&#x9;&lt;/span&gt;&lt;span style=&quot;white-space: pre;&quot;&gt;&#x9;&lt;/span&gt;buyer&lt;/b&gt;" style="html=1;dashed=0;whiteSpace=wrap;shape=mxgraph.dfd.dataStoreID;align=left;spacingLeft=3;points=[[0,0],[0.5,0],[1,0],[0,0.5],[1,0.5],[0,1],[0.5,1],[1,1]];strokeWidth=2;labelBackgroundColor=none;" parent="1" vertex="1">
          <mxGeometry x="85" y="324" width="100" height="30" as="geometry" />
        </mxCell>
        <mxCell id="0QgKimpwkoEhEV1Tv8lo-15" value="&lt;font style=&quot;font-size: 16px;&quot;&gt;create account&amp;nbsp;&lt;/font&gt;" style="shape=internalStorage;whiteSpace=wrap;html=1;backgroundOutline=1;dx=0;dy=38;strokeWidth=2;labelBackgroundColor=none;" parent="1" vertex="1">
          <mxGeometry x="-289" y="371" width="118" height="112" as="geometry" />
        </mxCell>
        <mxCell id="Yw3bG8DfbvIrN_ZVLXQz-2" style="edgeStyle=orthogonalEdgeStyle;rounded=0;orthogonalLoop=1;jettySize=auto;html=1;exitX=1;exitY=0.25;exitDx=0;exitDy=0;entryX=0.854;entryY=-0.06;entryDx=0;entryDy=0;entryPerimeter=0;" parent="1" source="0QgKimpwkoEhEV1Tv8lo-20" target="0QgKimpwkoEhEV1Tv8lo-14" edge="1">
          <mxGeometry relative="1" as="geometry">
            <mxPoint x="-90" y="198" as="targetPoint" />
          </mxGeometry>
        </mxCell>
        <mxCell id="0QgKimpwkoEhEV1Tv8lo-20" value="&lt;font style=&quot;font-size: 16px;&quot;&gt;log in&lt;/font&gt;" style="shape=internalStorage;whiteSpace=wrap;html=1;backgroundOutline=1;dx=0;dy=38;strokeWidth=2;labelBackgroundColor=none;" parent="1" vertex="1">
          <mxGeometry x="-289" y="170" width="118" height="112" as="geometry" />
        </mxCell>
        <mxCell id="IVCb8C8DBGEB2nKKx3dU-76" style="edgeStyle=none;rounded=0;orthogonalLoop=1;jettySize=auto;html=1;entryX=0;entryY=1;entryDx=0;entryDy=0;" parent="1" source="0QgKimpwkoEhEV1Tv8lo-64" target="Yw3bG8DfbvIrN_ZVLXQz-35" edge="1">
          <mxGeometry relative="1" as="geometry">
            <Array as="points">
              <mxPoint x="388" y="42" />
            </Array>
            <mxPoint x="233" y="42" as="targetPoint" />
          </mxGeometry>
        </mxCell>
        <mxCell id="0QgKimpwkoEhEV1Tv8lo-64" value="&amp;nbsp; &amp;nbsp; &amp;nbsp; &amp;nbsp; &amp;nbsp;books" style="html=1;dashed=0;whiteSpace=wrap;shape=mxgraph.dfd.dataStoreID;align=left;spacingLeft=3;points=[[0,0],[0.5,0],[1,0],[0,0.5],[1,0.5],[0,1],[0.5,1],[1,1]];strokeWidth=2;labelBackgroundColor=none;" parent="1" vertex="1">
          <mxGeometry x="338" y="-157" width="100" height="30" as="geometry" />
        </mxCell>
        <mxCell id="IVCb8C8DBGEB2nKKx3dU-37" style="edgeStyle=none;rounded=0;orthogonalLoop=1;jettySize=auto;html=1;entryX=1;entryY=0.75;entryDx=0;entryDy=0;exitX=0;exitY=0.5;exitDx=0;exitDy=0;" parent="1" source="0QgKimpwkoEhEV1Tv8lo-67" target="0QgKimpwkoEhEV1Tv8lo-12" edge="1">
          <mxGeometry relative="1" as="geometry" />
        </mxCell>
        <mxCell id="0QgKimpwkoEhEV1Tv8lo-67" value="&lt;div&gt;view available books&lt;/div&gt;" style="shape=internalStorage;whiteSpace=wrap;html=1;backgroundOutline=1;dx=0;dy=45;strokeWidth=2;labelBackgroundColor=none;" parent="1" vertex="1">
          <mxGeometry x="-289" y="-23" width="119" height="114" as="geometry" />
        </mxCell>
        <mxCell id="0QgKimpwkoEhEV1Tv8lo-70" style="edgeStyle=none;curved=1;rounded=0;orthogonalLoop=1;jettySize=auto;html=1;exitX=0;exitY=0.75;exitDx=0;exitDy=0;fontSize=12;startSize=8;endSize=8;labelBackgroundColor=none;fontColor=default;" parent="1" source="0QgKimpwkoEhEV1Tv8lo-67" target="0QgKimpwkoEhEV1Tv8lo-67" edge="1">
          <mxGeometry relative="1" as="geometry" />
        </mxCell>
        <mxCell id="IVCb8C8DBGEB2nKKx3dU-50" style="edgeStyle=none;rounded=0;orthogonalLoop=1;jettySize=auto;html=1;exitX=0;exitY=0.5;exitDx=0;exitDy=0;entryX=0.75;entryY=0;entryDx=0;entryDy=0;" parent="1" source="IVCb8C8DBGEB2nKKx3dU-10" target="0QgKimpwkoEhEV1Tv8lo-12" edge="1">
          <mxGeometry relative="1" as="geometry">
            <mxPoint x="279" y="-583" as="targetPoint" />
          </mxGeometry>
        </mxCell>
        <mxCell id="wmI9wpp7zhTLXnRo9IfW-16" style="edgeStyle=orthogonalEdgeStyle;rounded=0;orthogonalLoop=1;jettySize=auto;html=1;exitX=0.5;exitY=0;exitDx=0;exitDy=0;" parent="1" source="IVCb8C8DBGEB2nKKx3dU-10" edge="1">
          <mxGeometry relative="1" as="geometry">
            <mxPoint x="-229.9473684210525" y="-610.8420859888979" as="targetPoint" />
          </mxGeometry>
        </mxCell>
        <mxCell id="IVCb8C8DBGEB2nKKx3dU-10" value="&lt;font style=&quot;font-size: 16px;&quot;&gt;view cart&lt;/font&gt;" style="shape=internalStorage;whiteSpace=wrap;html=1;backgroundOutline=1;dx=0;dy=45;strokeWidth=2;labelBackgroundColor=none;" parent="1" vertex="1">
          <mxGeometry x="-289" y="-542" width="119" height="107" as="geometry" />
        </mxCell>
        <mxCell id="IVCb8C8DBGEB2nKKx3dU-41" style="edgeStyle=none;rounded=0;orthogonalLoop=1;jettySize=auto;html=1;exitX=1;exitY=0.5;exitDx=0;exitDy=0;entryX=0;entryY=0.5;entryDx=0;entryDy=0;" parent="1" source="IVCb8C8DBGEB2nKKx3dU-11" target="IVCb8C8DBGEB2nKKx3dU-14" edge="1">
          <mxGeometry relative="1" as="geometry" />
        </mxCell>
        <mxCell id="IVCb8C8DBGEB2nKKx3dU-11" value="&lt;font style=&quot;font-size: 16px;&quot;&gt;add to cart&lt;/font&gt;" style="shape=internalStorage;whiteSpace=wrap;html=1;backgroundOutline=1;dx=0;dy=45;strokeWidth=2;labelBackgroundColor=none;" parent="1" vertex="1">
          <mxGeometry x="-289" y="-376" width="119" height="114" as="geometry" />
        </mxCell>
        <mxCell id="Yw3bG8DfbvIrN_ZVLXQz-14" style="edgeStyle=orthogonalEdgeStyle;rounded=0;orthogonalLoop=1;jettySize=auto;html=1;exitX=0.5;exitY=0;exitDx=0;exitDy=0;entryX=1;entryY=0.25;entryDx=0;entryDy=0;" parent="1" source="IVCb8C8DBGEB2nKKx3dU-14" target="IVCb8C8DBGEB2nKKx3dU-10" edge="1">
          <mxGeometry relative="1" as="geometry" />
        </mxCell>
        <mxCell id="IVCb8C8DBGEB2nKKx3dU-14" value="&lt;b&gt;&amp;nbsp; &amp;nbsp; &amp;nbsp; &amp;nbsp; cart&lt;/b&gt;" style="html=1;dashed=0;whiteSpace=wrap;shape=mxgraph.dfd.dataStoreID;align=left;spacingLeft=3;points=[[0,0],[0.5,0],[1,0],[0,0.5],[1,0.5],[0,1],[0.5,1],[1,1]];strokeWidth=2;labelBackgroundColor=none;" parent="1" vertex="1">
          <mxGeometry x="116" y="-334" width="115" height="30" as="geometry" />
        </mxCell>
        <mxCell id="IVCb8C8DBGEB2nKKx3dU-36" style="edgeStyle=none;rounded=0;orthogonalLoop=1;jettySize=auto;html=1;exitX=0.5;exitY=1;exitDx=0;exitDy=0;" parent="1" source="0QgKimpwkoEhEV1Tv8lo-67" target="0QgKimpwkoEhEV1Tv8lo-67" edge="1">
          <mxGeometry relative="1" as="geometry" />
        </mxCell>
        <mxCell id="IVCb8C8DBGEB2nKKx3dU-44" style="edgeStyle=none;rounded=0;orthogonalLoop=1;jettySize=auto;html=1;entryX=0.992;entryY=0.573;entryDx=0;entryDy=0;entryPerimeter=0;" parent="1" source="0QgKimpwkoEhEV1Tv8lo-64" target="0QgKimpwkoEhEV1Tv8lo-44" edge="1">
          <mxGeometry relative="1" as="geometry" />
        </mxCell>
        <mxCell id="IVCb8C8DBGEB2nKKx3dU-77" style="edgeStyle=none;rounded=0;orthogonalLoop=1;jettySize=auto;html=1;" parent="1" edge="1">
          <mxGeometry relative="1" as="geometry">
            <mxPoint x="-171" y="39" as="targetPoint" />
            <mxPoint x="114" y="41.48185776487662" as="sourcePoint" />
          </mxGeometry>
        </mxCell>
        <mxCell id="IVCb8C8DBGEB2nKKx3dU-73" style="edgeStyle=none;curved=1;rounded=0;orthogonalLoop=1;jettySize=auto;html=1;exitX=0;exitY=0.75;exitDx=0;exitDy=0;fontSize=12;startSize=8;endSize=8;labelBackgroundColor=none;fontColor=default;" parent="1" edge="1">
          <mxGeometry relative="1" as="geometry">
            <mxPoint x="114" y="70.5" as="sourcePoint" />
            <mxPoint x="114" y="70.5" as="targetPoint" />
          </mxGeometry>
        </mxCell>
        <mxCell id="IVCb8C8DBGEB2nKKx3dU-74" style="edgeStyle=none;rounded=0;orthogonalLoop=1;jettySize=auto;html=1;exitX=0.5;exitY=1;exitDx=0;exitDy=0;" parent="1" edge="1">
          <mxGeometry relative="1" as="geometry">
            <mxPoint x="173.5" y="99" as="sourcePoint" />
            <mxPoint x="173.5" y="99" as="targetPoint" />
          </mxGeometry>
        </mxCell>
        <mxCell id="IVCb8C8DBGEB2nKKx3dU-83" style="edgeStyle=none;rounded=0;orthogonalLoop=1;jettySize=auto;html=1;exitX=1.01;exitY=0.288;exitDx=0;exitDy=0;entryX=0.53;entryY=0.003;entryDx=0;entryDy=0;entryPerimeter=0;exitPerimeter=0;" parent="1" source="IVCb8C8DBGEB2nKKx3dU-78" target="IVCb8C8DBGEB2nKKx3dU-81" edge="1">
          <mxGeometry relative="1" as="geometry">
            <Array as="points">
              <mxPoint x="63" y="-881" />
            </Array>
            <mxPoint x="60.5" y="-888" as="targetPoint" />
          </mxGeometry>
        </mxCell>
        <mxCell id="IVCb8C8DBGEB2nKKx3dU-78" value="&lt;span style=&quot;font-size: 16px;&quot;&gt;confirm order&lt;/span&gt;" style="shape=internalStorage;whiteSpace=wrap;html=1;backgroundOutline=1;dx=0;dy=45;strokeWidth=2;labelBackgroundColor=none;" parent="1" vertex="1">
          <mxGeometry x="-290" y="-914" width="119" height="114" as="geometry" />
        </mxCell>
        <mxCell id="IVCb8C8DBGEB2nKKx3dU-81" value="&lt;b&gt;&amp;nbsp; &amp;nbsp; &amp;nbsp; &amp;nbsp; &amp;nbsp;order&lt;/b&gt;" style="html=1;dashed=0;whiteSpace=wrap;shape=mxgraph.dfd.dataStoreID;align=left;spacingLeft=3;points=[[0,0],[0.5,0],[1,0],[0,0.5],[1,0.5],[0,1],[0.5,1],[1,1]];strokeWidth=2;labelBackgroundColor=none;" parent="1" vertex="1">
          <mxGeometry x="1" y="-852" width="115" height="30" as="geometry" />
        </mxCell>
        <mxCell id="0QgKimpwkoEhEV1Tv8lo-44" value="&lt;font style=&quot;font-size: 16px;&quot;&gt;view/ click book&lt;/font&gt;" style="shape=internalStorage;whiteSpace=wrap;html=1;backgroundOutline=1;dx=0;dy=45;strokeWidth=2;labelBackgroundColor=none;" parent="1" vertex="1">
          <mxGeometry x="-290" y="-212" width="119" height="114" as="geometry" />
        </mxCell>
        <mxCell id="Yw3bG8DfbvIrN_ZVLXQz-4" style="edgeStyle=orthogonalEdgeStyle;rounded=0;orthogonalLoop=1;jettySize=auto;html=1;exitX=1;exitY=0.25;exitDx=0;exitDy=0;entryX=0.5;entryY=1;entryDx=0;entryDy=0;" parent="1" source="0QgKimpwkoEhEV1Tv8lo-15" target="0QgKimpwkoEhEV1Tv8lo-14" edge="1">
          <mxGeometry relative="1" as="geometry" />
        </mxCell>
        <mxCell id="Yw3bG8DfbvIrN_ZVLXQz-17" style="edgeStyle=orthogonalEdgeStyle;rounded=0;orthogonalLoop=1;jettySize=auto;html=1;exitX=1;exitY=0.25;exitDx=0;exitDy=0;entryX=0.5;entryY=1;entryDx=0;entryDy=0;" parent="1" source="0QgKimpwkoEhEV1Tv8lo-44" target="IVCb8C8DBGEB2nKKx3dU-11" edge="1">
          <mxGeometry relative="1" as="geometry">
            <Array as="points">
              <mxPoint x="-146" y="-183" />
              <mxPoint x="-146" y="-243" />
              <mxPoint x="-230" y="-243" />
            </Array>
          </mxGeometry>
        </mxCell>
        <mxCell id="Yw3bG8DfbvIrN_ZVLXQz-22" value="buyer info" style="text;html=1;align=center;verticalAlign=middle;whiteSpace=wrap;rounded=0;" parent="1" vertex="1">
          <mxGeometry x="-361" y="371" width="60" height="30" as="geometry" />
        </mxCell>
        <mxCell id="Yw3bG8DfbvIrN_ZVLXQz-24" value="buyer info" style="text;html=1;align=center;verticalAlign=middle;whiteSpace=wrap;rounded=0;" parent="1" vertex="1">
          <mxGeometry x="-144" y="453" width="60" height="30" as="geometry" />
        </mxCell>
        <mxCell id="Yw3bG8DfbvIrN_ZVLXQz-25" value="buyer info" style="text;html=1;align=center;verticalAlign=middle;whiteSpace=wrap;rounded=0;" parent="1" vertex="1">
          <mxGeometry x="-150" y="371" width="60" height="30" as="geometry" />
        </mxCell>
        <mxCell id="Yw3bG8DfbvIrN_ZVLXQz-26" value="login info" style="text;html=1;align=center;verticalAlign=middle;whiteSpace=wrap;rounded=0;" parent="1" vertex="1">
          <mxGeometry x="-361" y="166" width="60" height="30" as="geometry" />
        </mxCell>
        <mxCell id="Yw3bG8DfbvIrN_ZVLXQz-28" value="login info" style="text;html=1;align=center;verticalAlign=middle;whiteSpace=wrap;rounded=0;" parent="1" vertex="1">
          <mxGeometry x="-164" y="170" width="60" height="30" as="geometry" />
        </mxCell>
        <mxCell id="Yw3bG8DfbvIrN_ZVLXQz-30" value="login info" style="text;html=1;align=center;verticalAlign=middle;whiteSpace=wrap;rounded=0;" parent="1" vertex="1">
          <mxGeometry x="52" y="223" width="60" height="30" as="geometry" />
        </mxCell>
        <mxCell id="Yw3bG8DfbvIrN_ZVLXQz-33" value="available books info" style="text;html=1;align=center;verticalAlign=middle;whiteSpace=wrap;rounded=0;" parent="1" vertex="1">
          <mxGeometry x="-358" y="-5" width="60" height="30" as="geometry" />
        </mxCell>
        <mxCell id="Yw3bG8DfbvIrN_ZVLXQz-35" value="available books" style="text;html=1;align=center;verticalAlign=middle;whiteSpace=wrap;rounded=0;" parent="1" vertex="1">
          <mxGeometry x="-164" y="9" width="60" height="30" as="geometry" />
        </mxCell>
        <mxCell id="Yw3bG8DfbvIrN_ZVLXQz-37" value="books info" style="text;html=1;align=center;verticalAlign=middle;whiteSpace=wrap;rounded=0;" parent="1" vertex="1">
          <mxGeometry x="265" y="9" width="60" height="30" as="geometry" />
        </mxCell>
        <mxCell id="Yw3bG8DfbvIrN_ZVLXQz-38" value="books info" style="text;html=1;align=center;verticalAlign=middle;whiteSpace=wrap;rounded=0;" parent="1" vertex="1">
          <mxGeometry x="219" y="-170" width="60" height="30" as="geometry" />
        </mxCell>
        <mxCell id="Yw3bG8DfbvIrN_ZVLXQz-39" value="clicked book info" style="text;html=1;align=center;verticalAlign=middle;whiteSpace=wrap;rounded=0;" parent="1" vertex="1">
          <mxGeometry x="-385" y="-187" width="58" height="30" as="geometry" />
        </mxCell>
        <mxCell id="Yw3bG8DfbvIrN_ZVLXQz-43" value="clicked book info" style="text;html=1;align=center;verticalAlign=middle;whiteSpace=wrap;rounded=0;" parent="1" vertex="1">
          <mxGeometry x="-151" y="-352" width="60" height="30" as="geometry" />
        </mxCell>
        <mxCell id="Yw3bG8DfbvIrN_ZVLXQz-46" value="confirmation" style="text;html=1;align=center;verticalAlign=middle;whiteSpace=wrap;rounded=0;" parent="1" vertex="1">
          <mxGeometry x="-116" y="-920" width="60" height="30" as="geometry" />
        </mxCell>
        <mxCell id="Yw3bG8DfbvIrN_ZVLXQz-47" value="cart info" style="text;html=1;align=center;verticalAlign=middle;whiteSpace=wrap;rounded=0;" parent="1" vertex="1">
          <mxGeometry x="-370" y="-415" width="60" height="30" as="geometry" />
        </mxCell>
        <mxCell id="Yw3bG8DfbvIrN_ZVLXQz-48" value="cart info" style="text;html=1;align=center;verticalAlign=middle;whiteSpace=wrap;rounded=0;" parent="1" vertex="1">
          <mxGeometry x="-117" y="-538" width="60" height="30" as="geometry" />
        </mxCell>
        <mxCell id="DRoF5h4D-uH2BKeEe5Hj-6" value="2.0" style="text;html=1;align=center;verticalAlign=middle;whiteSpace=wrap;rounded=0;" parent="1" vertex="1">
          <mxGeometry x="-263" y="374" width="60" height="30" as="geometry" />
        </mxCell>
        <mxCell id="DRoF5h4D-uH2BKeEe5Hj-7" value="3.0" style="text;html=1;align=center;verticalAlign=middle;whiteSpace=wrap;rounded=0;" parent="1" vertex="1">
          <mxGeometry x="-263" y="174" width="60" height="30" as="geometry" />
        </mxCell>
        <mxCell id="DRoF5h4D-uH2BKeEe5Hj-8" value="4.1" style="text;html=1;align=center;verticalAlign=middle;whiteSpace=wrap;rounded=0;" parent="1" vertex="1">
          <mxGeometry x="139" y="-5" width="60" height="30" as="geometry" />
        </mxCell>
        <mxCell id="DRoF5h4D-uH2BKeEe5Hj-9" value="4.0" style="text;html=1;align=center;verticalAlign=middle;whiteSpace=wrap;rounded=0;" parent="1" vertex="1">
          <mxGeometry x="-260.5" y="-15" width="60" height="30" as="geometry" />
        </mxCell>
        <mxCell id="DRoF5h4D-uH2BKeEe5Hj-10" value="6.0" style="text;html=1;align=center;verticalAlign=middle;whiteSpace=wrap;rounded=0;" parent="1" vertex="1">
          <mxGeometry x="-259.5" y="-368" width="60" height="30" as="geometry" />
        </mxCell>
        <mxCell id="DRoF5h4D-uH2BKeEe5Hj-11" value="5.0" style="text;html=1;align=center;verticalAlign=middle;whiteSpace=wrap;rounded=0;" parent="1" vertex="1">
          <mxGeometry x="-263" y="-202" width="60" height="30" as="geometry" />
        </mxCell>
        <mxCell id="DRoF5h4D-uH2BKeEe5Hj-16" value="7.0" style="text;html=1;align=center;verticalAlign=middle;whiteSpace=wrap;rounded=0;" parent="1" vertex="1">
          <mxGeometry x="-260.5" y="-538" width="60" height="30" as="geometry" />
        </mxCell>
        <mxCell id="wmI9wpp7zhTLXnRo9IfW-18" style="edgeStyle=orthogonalEdgeStyle;rounded=0;orthogonalLoop=1;jettySize=auto;html=1;exitX=0.5;exitY=0;exitDx=0;exitDy=0;entryX=0.5;entryY=1;entryDx=0;entryDy=0;" parent="1" source="TXvVg1PiItPzL4yObo3--3" target="IVCb8C8DBGEB2nKKx3dU-78" edge="1">
          <mxGeometry relative="1" as="geometry" />
        </mxCell>
        <mxCell id="TXvVg1PiItPzL4yObo3--3" value="&lt;div&gt;&lt;font style=&quot;font-size: 16px;&quot;&gt;&lt;br&gt;&lt;/font&gt;&lt;/div&gt;&lt;font style=&quot;font-size: 16px;&quot;&gt;procedd to checkout&lt;/font&gt;" style="shape=internalStorage;whiteSpace=wrap;html=1;backgroundOutline=1;dx=0;dy=45;strokeWidth=2;labelBackgroundColor=none;" parent="1" vertex="1">
          <mxGeometry x="-289" y="-719" width="119" height="107" as="geometry" />
        </mxCell>
        <mxCell id="TXvVg1PiItPzL4yObo3--4" style="edgeStyle=none;rounded=0;orthogonalLoop=1;jettySize=auto;html=1;exitX=0;exitY=0.5;exitDx=0;exitDy=0;entryX=0.702;entryY=-0.018;entryDx=0;entryDy=0;entryPerimeter=0;" parent="1" source="TXvVg1PiItPzL4yObo3--3" edge="1">
          <mxGeometry relative="1" as="geometry">
            <mxPoint x="-532.5" y="-176" as="targetPoint" />
            <mxPoint x="-345.5" y="-832" as="sourcePoint" />
          </mxGeometry>
        </mxCell>
        <mxCell id="TXvVg1PiItPzL4yObo3--5" value="8.0" style="text;html=1;align=center;verticalAlign=middle;whiteSpace=wrap;rounded=0;" parent="1" vertex="1">
          <mxGeometry x="-263" y="-710" width="60" height="30" as="geometry" />
        </mxCell>
        <mxCell id="XvehVMpuPs54WJjvIu0x-2" value="9.0" style="text;html=1;align=center;verticalAlign=middle;whiteSpace=wrap;rounded=0;" parent="1" vertex="1">
          <mxGeometry x="-263" y="-906" width="60" height="30" as="geometry" />
        </mxCell>
        <mxCell id="GQG8uqT26CS6RamLYZfu-1" value="D1" style="text;html=1;align=center;verticalAlign=middle;whiteSpace=wrap;rounded=0;" parent="1" vertex="1">
          <mxGeometry x="-15" y="-852" width="60" height="30" as="geometry" />
        </mxCell>
        <mxCell id="GQG8uqT26CS6RamLYZfu-2" value="D4" style="text;html=1;align=center;verticalAlign=middle;whiteSpace=wrap;rounded=0;" parent="1" vertex="1">
          <mxGeometry x="325" y="-157" width="60" height="30" as="geometry" />
        </mxCell>
        <mxCell id="GQG8uqT26CS6RamLYZfu-3" value="D3" style="text;html=1;align=center;verticalAlign=middle;whiteSpace=wrap;rounded=0;" parent="1" vertex="1">
          <mxGeometry x="100" y="-334" width="60" height="30" as="geometry" />
        </mxCell>
        <mxCell id="wmI9wpp7zhTLXnRo9IfW-4" value="" style="endArrow=classic;html=1;rounded=0;entryX=0;entryY=0.75;entryDx=0;entryDy=0;" parent="1" target="IVCb8C8DBGEB2nKKx3dU-11" edge="1">
          <mxGeometry width="50" height="50" relative="1" as="geometry">
            <mxPoint x="-483" y="-177" as="sourcePoint" />
            <mxPoint x="143" y="-147" as="targetPoint" />
          </mxGeometry>
        </mxCell>
        <mxCell id="wmI9wpp7zhTLXnRo9IfW-15" value="clicked book info" style="text;html=1;align=center;verticalAlign=middle;whiteSpace=wrap;rounded=0;" parent="1" vertex="1">
          <mxGeometry x="-157" y="-212" width="60" height="30" as="geometry" />
        </mxCell>
        <mxCell id="wmI9wpp7zhTLXnRo9IfW-17" value="cart info" style="text;html=1;align=center;verticalAlign=middle;whiteSpace=wrap;rounded=0;" parent="1" vertex="1">
          <mxGeometry x="-286" y="-596" width="60" height="30" as="geometry" />
        </mxCell>
        <mxCell id="wmI9wpp7zhTLXnRo9IfW-19" value="cart info" style="text;html=1;align=center;verticalAlign=middle;whiteSpace=wrap;rounded=0;" parent="1" vertex="1">
          <mxGeometry x="-284" y="-770" width="60" height="30" as="geometry" />
        </mxCell>
      </root>
    </mxGraphModel>
  </diagram>
</mxfile>
